<svg height="1024" viewBox="0 0 1440 1024" width="1440" xmlns="http://www.w3.org/2000/svg" xmlns:xlink="http://www.w3.org/1999/xlink"><linearGradient id="a" x1="73.537545%" x2="24.298971%" y1="0%" y2="0%"><stop offset="0" stop-color="#0076c4"/><stop offset="1" stop-color="#eb4199"/></linearGradient><g fill="none"><g transform="translate(378.651685 101)"><path d="m134.515481 661.519023c70.75854-9.610727 143.543795-14.41609 218.355765-14.41609s152.0047 4.805363 231.578189 14.41609c-65.229742-22.702712-142.422472-34.054068-231.578189-34.054068s-161.940972 11.351356-218.355765 34.054068z" fill="url(#a)"/><path d="m414.100482 190.060795c8.212544-4.56429 14.154416-9.155937 17.825616-13.774941 5.506799-6.928507.400259-40.589952-19.207297-47.651398s-18.611982 3.777854-14.62812 15.988712 7.348917 24.668455 0 22.509681-15.994195-20.936668-21.15614-14.920291c-5.161944 6.016377 8.648411 28.102441 12.314254 31.768283 3.665842 3.665842 4.716247 10.312923 4.716247 18.349577s3.4229 53.4508 20.13544 81.293968c11.141694 18.562112 20.639221 32.450276 28.492584 41.66449l-1.933184 16.734413c-13.576186 27.472407-24.0651 50.275826-31.466741 68.410256-7.40164 18.134431-10.429606 40.116691-9.083897 65.946779l15.32134 1.902021 13.949783 66.989181c5.972921-5.145234 10.377154-8.331697 13.212699-9.559389 2.835544-1.227691 5.687799-1.87783 8.556765-1.950416 5.003718 19.510427 8.503761 31.512405 10.500131 36.005934s4.897712 10.946612 8.704025 19.35925c.259534 17.173061-.414887 26.518348-2.023262 28.035861-2.412563 2.276268-18.387959 5.646023-20.76919 7.275286-2.381231 1.629264-5.304505 9.07766 3.588296 9.07766 8.8928 0 30.05364 1.402889 37.138585-4.783611s18.601799-13.715576 18.601799-16.421877c0-1.8042 0-4.845752 0-9.124657 11.317113-6.190156 16.620574-11.595445 15.910382-16.215869-1.065287-6.930635-11.759677-15.285309-15.910382-23.84364-2.767136-5.705555-5.445238-15.493667-8.034304-29.364337h17.776985l1.101319-60.458981h10.515798c-9.509258-20.800783-14.869638-34.370665-16.081142-40.709648-1.817255-9.508474-5.278656-22.886845-5.278656-37.727627 0-9.893854 1.759552-18.553492 5.278656-25.978915 13.379199 15.052423 21.176457 25.740028 23.391774 32.062815s4.428544 13.876107 6.639679 22.659959c-8.167152 9.604725-12.250728 16.157012-12.250728 19.656862 0 5.249775 2.335742 4.706608 7.293235 2.353304s8.472396-5.654954 10.882149 0c2.409754 5.654954.962145 24.801265 6.104039 24.801265 3.42793 0 6.723726-4.711207 9.88739-14.133622 7.341739 8.60871 12.49116 11.730141 15.448261 9.364293s2.957101-8.404657 0-18.116427c10.772178 2.845876 16.158267 2.845876 16.158267 0 0-2.845875-10.535509-12.624966-31.606528-29.337271-2.522234-19.219485-5.81803-33.608175-9.88739-43.166068-4.069359-9.557893-13.462086-28.984777-28.178181-58.280652l-3.250241-8.353226c24.746503 11.26073 47.104571 16.891094 67.074204 16.891094 29.954449 0 80.925558-23.481097 83.019196-86.242059 2.093638-62.760963-55.227378-96.927022-89.179684-102.506711s-64.526252.227888-89.95492 30.592743c13.776111-6.216798 23.980148-8.326256 30.612111-6.328373-14.049805 9.922514-23.093079 21.253748-27.129823 33.993702-4.036744 12.739955-6.450261 19.718748-7.24055 20.936378-5.036104-5.559618-8.255798-7.382718-9.659083-5.4693-1.403285 1.913419-2.805734 5.062447-4.207346 9.447086-3.986821 6.859204-6.588147 13.853467-7.803977 20.982791-1.823746 10.693985 5.33652 21.874688 10.184878 28.58587 3.232239 4.474121 8.313502 9.255248 15.24379 14.343383-3.372608 3.266707-8.453871 3.266707-15.24379 0-10.184878-4.900061-36.037378-34.907196-46.589505-52.762702-7.034752-11.90367-12.976624-25.503967-17.825616-40.800889z" fill="#0076c4"/><path d="m182.66628 306.880537 4.692461 8.019184c-12.274703 14.113608-21.7759 30.209684-28.503591 48.288227-6.72769 18.078544-11.71398 35.996542-14.95887 53.753995l-15.538442 14.842151c-11.470703 4.801149-16.089841 9.219941-13.857414 13.256376 2.232426 4.036436 6.851565 4.036436 13.857414 0-2.082168 14.37572-1.383193 21.56358 2.096925 21.56358 3.480117 0 7.960623-4.464406 13.441517-13.393219.33298 11.409883 2.586491 17.114825 6.760533 17.114825s6.906821-8.428395 8.198337-25.285186c4.032858-1.481129 7.975381-.489685 11.82757 2.974333 5.778282 5.196028 9.906394-4.735857 4.953197-12.334695-3.302132-5.065892-6.541655-9.940829-9.71857-14.624811 3.176982-11.059278 7.544793-20.988032 13.103433-29.786263 5.558641-8.79823 11.327533-15.727608 17.306675-20.788133 2.750286 9.161357 4.125428 20.47554 4.125428 33.942548 0 20.200511-8.40168 46.815226-13.094142 68.898006-4.692461 22.08278-8.968714 56.960426 0 59.396776 5.979143 1.624234 13.33742-1.209231 22.074831-8.500395v19.34457c-4.384358 10.569146-8.753063 19.451003-13.106117 26.645571-6.52958 10.791852-13.818707 15.644429-8.968714 21.283185 3.233329 3.759171 9.09885 9.329505 17.596561 16.711003-1.677003 6.017535-1.677003 9.9055 0 11.663894 2.515505 2.637591 20.157581 13.738012 24.761961 15.691385 4.60438 1.953374 27.875821 3.843692 32.619728 0s-.119403-13.497865-5.691079-13.497865-14.253187-.465536-17.4623-5.709861c-3.209114-5.244325-3.937604-13.475057 0-24.858556s13.933885-31.723537 15.698093-45.248234c1.176138-9.016465 1.764207-17.933203 1.764207-26.750216l70.169846-1.825921c-3.484589-36.403942-11.303003-73.523853-23.45524-111.359732s-24.031682-63.713159-35.638334-77.63184v-8.370259c18.74219-22.689185 31.236983-43.63205 37.484379-62.828596 6.247397-19.196546 9.973028-42.998366 11.176892-71.405462 14.455322-13.648571 20.4022-22.728986 17.840633-27.241243-3.84235-6.768385-12.984031 8.053641-17.840633 8.053641-4.856601 0-9.222176-6.835465-9.222176-14.533582 0-7.698116 9.45964-23.051436 3.752462-25.952642-5.707178-2.901207-24.600968 4.096593-28.539914 16.200532-3.938945 12.10394-8.311229 26.738142-2.304873 35.105718 4.004237 5.578384 8.889906 9.692185 14.657009 12.341403-7.824227 20.073954-16.825486 37.379735-27.003779 51.917341-10.178292 14.537607-24.626126 29.455782-43.343502 44.754525l-9.296963-4.345451c14.363199-13.59133 22.397163-23.724008 24.101893-30.398034 2.557094-10.01104.056347-23.7732-3.596837-26.866936s-.530931-11.600838-5.869512-13.432126c-3.559054-1.220859-6.94347.001789-10.153249 3.667942l-4.482295-3.667942c-.999047-13.114614-4.374519-23.275912-10.126417-30.483896-5.751898-7.207985-11.617418-14.001413-17.596561-20.380287.227245-2.136726 3.216816-2.136726 8.968714 0s12.003319 4.819037 18.754264 8.046933c-9.110376-14.92846-22.955269-25.162206-41.534678-30.701236-27.869112-8.308546-83.5764811-5.153096-110.0248366 30.701236s-28.7840858 52.051501-28.7840858 61.678842v21.43747c-6.2778062-1.089382-10.5606492-.444518-12.848529 1.934591s-2.9788052 8.745461-2.0727762 19.099056c-13.21120893 5.342695-19.8168134 16.633955-19.8168134 33.87378 0 25.859738 20.929002 42.558667 44.5693831 70.050789 23.6403811 27.492123 30.0747076 43.969687 24.5137645 54.852768 30.0197019-28.020714 25.6675427-59.999156 8.0201009-82.996909-17.6474419-22.997753-39.0808865-41.977407-42.3651299-50.319492-2.1894956-5.561391-2.1894956-9.478423 0-11.751098 5.7223827 4.943358 10.4412465 4.943358 14.1565916 0 21.4683263 32.21993 51.1579938 38.532171 73.0797818 38.532171 14.614526 0 34.845121-6.122743 60.691788-18.368229z" fill="#eb4199"/><path d="m341.135154 93.0732284 9.342179 66.4836956 9.14787-66.4836956 25.258051 18.9408496-16.652163-27.4280599 64.313391-6.1722177-64.313391-9.7499337 18.608727-27.7963539-27.214615 20.660652-9.14787-61.5281648-9.342179 61.5281648-22.995375-20.660652 16.662701 27.7963539-67.197939 9.7499337 67.197939 6.1722177-16.662701 27.4280599z" fill="#fc0"/></g><g transform="translate(20.706636 744.247893)"><path d="m38.6007725 164.468048c10.1018258 0 20.6091994-.811096 31.5221208-2.433287 10.9129213-1.622191 19.8718398-4.166081 26.8767556-7.631671 8.0372191-3.908006 14.3969451-8.848315 19.0791781-14.820927s7.02335-13.235604 7.02335-21.788975c0-7.078651-1.640625-13.327774-4.921875-18.7473664-3.28125-5.4195927-8.313729-10.1202598-15.097437-14.1020014-3.9817414-2.4332865-8.0925209-4.5531952-12.3323383-6.3597261s-8.203125-3.5208919-11.8899228-5.1430829c-4.5716292-2.1383427-7.8713132-4.0923455-9.8990519-5.8620084-2.0277388-1.7696629-3.0416082-3.7605337-3.0416082-5.9726124 0-2.2120786.9032655-4.0186095 2.7097964-5.4195926 1.8065309-1.4009832 4.3688553-2.4332866 7.6869733-3.0969102 3.6130618-.7373595 7.1339536-1.2719452 10.5626755-1.603757 3.428722-.3318118 7.2076897-.4977177 11.3369031-.4977177 5.2352529 0 9.6225419.110604 13.1618679.3318118 3.539326.2212079 6.636236.4055478 9.29073.5530197l-5.198384-38.8219804c-1.548455-.1474719-4.6638-.3133778-9.346033-.4977177-4.682233-.1843398-10.894487-.2765098-18.6367623-.2765098-17.1804776 0-31.8354986 1.8249649-43.9650632 5.4748947s-21.4755969 8.7192767-28.0380969 15.2080407c-3.2443821 3.0231742-5.84357448 6.65467-7.79757729 10.8944874-1.9540028 4.2398174-2.93100421 8.8298806-2.93100421 13.7701896 0 6.6362359 1.54845506 12.6825842 4.64536517 18.1390449 3.09691013 5.4564607 8.11095503 10.3230337 15.04213483 14.5997191 3.318118 2.0646068 7.5579354 4.2029495 12.7194522 6.4150281 5.1615169 2.2120787 9.1063905 3.981742 11.8346208 5.308989 4.8665731 2.138342 8.239993 4.073911 10.1202599 5.806706 1.8802668 1.732795 2.8204002 3.852704 2.8204002 6.359726 0 2.285815-.8110955 4.239818-2.4332865 5.862009s-4.792837 2.875702-9.5119382 3.760533c-3.5393258.589888-7.5579354 1.032304-12.0558286 1.327248-4.4978933.294944-8.3690309.442415-11.6134129.442415-3.4655899 0-8.4980689-.129038-15.0974368-.387113-6.59936802-.258076-10.34146774-.423982-11.2262992-.497718l5.0877809 38.82198c2.43328652.073736 6.544066.239642 12.3323385.497718s12.8484902.387114 21.1806531.387114zm150.2001405-2.322683c0-13.714887-.036868-27.171699-.110604-40.370435-.065061-11.645944-.101419-24.8418731-.109073-39.5877884l-.001531-5.981032c0-12.8300562.036868-25.5126405.110604-38.0477529.073736-12.5351123.110604-25.2545646.110604-38.1583567h-44.794593c.073736 14.1573034.147472 27.872191.221208 41.1446629s.110604 25.4389045.110604 36.4992978l-.000836 5.2730268c-.005855 18.1950785-.042444 33.6547485-.109768 46.3790095-.073736 13.936096-.147472 24.885885-.221208 32.849368zm87.045295 1.990871c9.216994 0 18.802668-.294944 28.757022-.884832 9.954354-.589887 15.632023-.921699 17.033006-.995435v-56.076194c0-10.4705053-1.271945-19.171348-3.815836-26.1025278-2.54389-6.9311798-6.802142-12.9037921-12.774754-17.9178371-6.415028-5.4564607-14.249473-9.3644663-23.503336-11.7240168-9.253862-2.3595506-21.364993-3.5393259-36.333391-3.5393259-6.046349 0-10.654846.036868-13.825492.1106039-3.170646.073736-5.677669.110604-7.521067.110604l-3.64993 31.3009129c3.46559-.073736 7.078651-.1843399 10.839185-.3318118s8.221559-.2212079 13.383076-.2212079c4.719101 0 8.756145.129038 12.111131.3871138s6.396594.7557935 9.124824 1.4931531c4.350421 1.0323034 7.262992 2.4701545 8.737711 4.3135534 1.474719 1.8433988 2.285814 4.1660814 2.433286 6.9680477-4.719101.2949438-11.558111.9770014-20.517029 2.0461728-8.958919 1.0691713-16.68276 2.7466643-23.171524 5.0324789-9.29073 3.2443818-15.926966 7.3551618-19.908708 12.3323388s-5.972612 11.005091-5.972612 18.083743c0 6.415028 1.972436 12.092696 5.91731 17.033005s9.604108 8.922051 16.977704 11.945225c5.82514 2.359551 13.327774 4.055478 22.5079 5.087781s16.903968 1.548455 23.171524 1.548455zm-.331812-24.996489c-2.875702 0-5.511763-.18434-7.908181-.553019-2.396419-.36868-4.516327-.9217-6.359726-1.659059-2.654495-1.032304-4.885007-2.562325-6.691538-4.590064-1.806531-2.027738-2.709797-4.811271-2.709797-8.350597 0-3.09691.995436-5.73297 2.986307-7.908181 1.99087-2.17521 4.055477-3.742099 6.19382-4.700667 3.46559-1.548455 7.060218-2.580758 10.783883-3.09691 3.723666-.516152 6.322858-.811096 7.797578-.884831.073736 2.433286.110604 4.99561.110604 7.686973l-.001129 8.97359c-.004515 3.187199-.022572 6.076445-.054173 8.667737-.036868 3.023174-.055302 5.124649-.055302 6.304424-.811096 0-1.566889.018434-2.267381.055302s-1.308813.055302-1.824965.055302zm133.498947 24.443469c5.530196 0 9.640976-.036868 12.332338-.110604 2.691363-.073736 4.774403-.18434 6.249122-.331811l3.981742-30.858498h-5.862008c-13.051265 0-21.604635-1.880266-25.660113-5.6408-4.055477-3.760534-6.083216-9.143259-6.083216-16.148174 0-2.359551-.018434-4.940309-.055302-7.742276-.036868-2.8019659-.055302-5.1983845-.055302-7.1892552 0-2.7282304.036868-5.5670647.110604-8.5165029s.110604-5.3089887.110604-7.0786516h36.831109v-31.300913h-36.831109v-31.7433286h-43.57795v31.7433286h-19.13448v31.300913h18.360253c0 6.7099719-.055302 13.051264-.165906 19.0238764-.110604 5.9726123-.165906 13.4199433-.165906 22.3419943 0 13.86236 5.032479 24.369733 15.097437 31.522121 10.064958 7.152387 24.904319 10.728581 44.518083 10.728581zm114.032654 0c4.866573 0 9.253863-.110604 13.161868-.331812 3.908006-.221207 6.93118-.442415 9.069523-.663623l4.313553-30.305478c-2.064607.073736-4.848139.147472-8.350597.221208s-7.760709.110604-12.774754.110604c-4.792837 0-9.530372-.258076-14.212605-.774227-4.682234-.516152-9.309165-1.548455-13.880794-3.09691-6.341292-2.138343-11.041959-5.050913-14.102001-8.737711-3.060043-3.686798-4.590064-7.668539-4.590064-11.945225h74.657655c0-10.7654493-1.253511-20.0746136-3.760534-27.9274928-2.507022-7.8528793-6.74684-14.6550211-12.719452-20.4064256-4.940309-4.6453652-10.857619-8.147823-17.751931-10.5073736s-14.655021-3.5393258-23.282128-3.5393258c-7.889747 0-15.76106 1.3641151-23.61394 4.0923455-7.852879 2.7282303-14.470681 6.6362359-19.853406 11.7240168-6.636236 6.3412922-11.336903 12.8300562-14.102001 19.4662922-2.765098 6.6362359-4.147647 14.3416432-4.147647 23.1162223 0 8.55337 1.8987 16.479986 5.696102 23.779845 3.797402 7.29986 9.014221 13.49368 15.650457 18.581461 7.889747 6.046348 17.272647 10.415203 28.1487 13.106566 10.876054 2.691362 23.024052 4.037043 36.443996 4.037043zm-8.184691-72.1137638h-36.720505c.737359-6.1200842 2.746664-10.9682233 6.027914-14.5444171s7.650105-5.3642907 13.106566-5.3642907c5.530197 0 9.770014 1.8433989 12.719452 5.5301966 2.949438 3.6867978 4.571629 8.4796348 4.866573 14.3785112z" fill="#0076c4"/><path d="m588.965941 85.9208216 21.659937-44.9789326-34.840239-10.8760533-14.470681 47.0988413zm64.703301 76.2245434c0-1.044593-.046085-5.944961-.138255-14.701106s-.138255-16.329442-.138255-22.719891l.002181-1.824856c.007999-3.519546.037995-7.99597.089989-13.42927.053432-5.583628.083632-8.809286.090602-9.6769727l.001568-.231296c2.396418-1.2903792 5.19224-2.5039501 8.387465-3.6407128 3.195224-1.1367626 6.113939-1.7051439 8.756144-1.7051439 3.502458 0 5.944962 1.121401 7.327511 3.3642029 1.382549 2.242802 2.104547 5.6991745 2.165993 10.3691185.061447 2.887992.107532 6.928108.138255 12.120348.030724 5.19224.046085 9.293802.046085 12.304687 0 5.714537-.030723 11.58269-.09217 17.60446-.061446 6.021769-.122893 10.077247-.18434 12.166432h37.328828c0-2.765098-.046085-8.295295-.138255-16.59059s-.138255-15.361657-.138255-21.199087c0-3.256671.046085-7.127809.138255-11.613413s.138255-10.38448.138255-17.6966289c0-9.0326545-2.565397-16.2833568-7.696191-21.7521068-5.130793-5.46875-12.181794-8.203125-21.153002-8.203125-5.714536 0-12.074262 1.1521243-19.079178 3.4563729s-12.504389 4.5009656-16.49842 6.590151l-.18434-.1843399.09217-7.3735955h-36.591468c.061447 8.1724017.122894 16.2065485.18434 24.1024403.061447 7.8958919.09217 16.3294419.09217 25.3006499l-.001045 3.455414c-.007318 11.845145-.053055 21.07782-.13721 27.698027-.09217 7.250702-.138255 11.920646-.138255 14.009831zm98.25316-76.2245434 21.659936-44.9789326-34.840238-10.8760533-14.470681 47.0988413z" fill="#fc0"/><path d="m897.292837 164.025632c.958567-7.889747 1.935569-15.152739 2.931004-21.788975.995436-6.636236 2.046173-12.977528 3.152212-19.023876h-7.521067c-4.129214 0-10.433638-.479284-18.913273-1.437851-8.479634-.958568-15.742626-2.507023-21.788974-4.645365-8.774579-2.875703-15.724193-6.691538-20.848842-11.447507-5.124648-4.75597-7.686973-10.525808-7.686973-17.3095159 0-7.0049157 2.599193-12.8669241 7.797577-17.5860252 5.198385-4.7191012 12.184867-8.4796349 20.959446-11.2816012 6.120084-2.0646067 13.272472-3.5577598 21.457163-4.4794592 8.184691-.9216995 14.452247-1.3825492 18.802668-1.3825492h5.862009c-1.47472-8.0372191-2.672929-15.7610604-3.594628-23.1715239-.9217-7.4104635-1.677493-13.3646418-2.267381-17.8625351h-5.419593c-16.885533 0-32.849368 1.9355688-47.891502 5.8067065-15.042135 3.8711376-27.982795 9.8990519-38.821981 18.083743-8.848314 6.488764-15.613588 14.0282654-20.295821 22.6185042-4.682234 8.5902387-7.02335 18.2680828-7.02335 29.0335323 0 11.2816011 2.35955 21.2359547 7.078652 29.8630617 4.719101 8.627107 11.502809 16.22191 20.351123 22.78441 10.617978 8.037219 23.226826 13.917662 37.826545 17.641327 14.599719 3.723666 31.153441 5.585499 49.661166 5.585499zm67.689607-1.880267-.221208-75.1000701c3.023174-1.622191 6.451896-3.0969101 10.286166-4.4241573 3.834269-1.3272472 7.299859-1.9908707 10.396769-1.9908707 3.981742 0 6.857444 1.2166432 8.627107 3.6499297s2.691362 6.7099719 2.765098 12.8300562c0 3.4655902.036868 6.7099722.110604 9.7331462s.110604 6.304424.110604 9.84375c0 4.350421-.036868 12.11113-.110604 23.282128-.073736 11.170997-.147472 18.563026-.221208 22.176088h44.794598c0-4.645365-.05531-11.613413-.16591-20.904143s-.16591-17.438553-.16591-24.443469c0-3.908006.05531-8.553371.16591-13.936096.1106-5.3827244.16591-12.4613761.16591-21.2359548 0-10.8391853-3.07848-19.540028-9.23543-26.102528-6.15696-6.5625-14.61816-9.84375-25.38361-9.84375-6.48876 0-13.991393 1.3641151-22.507896 4.0923455-8.516503 2.7282303-15.023701 5.2721207-19.521594 7.6316713l-.110604-.2212079.221208-57.1822331h-44.794593c.073736 14.3047753.147472 28.0196629.221208 41.1446629s.110604 25.1808287.110604 36.167486l-.001106 6.8176264c-.006636 20.0016147-.043136 35.9418537-.109498 47.8207167-.073736 13.198736-.147472 23.263693-.221208 30.194873zm162.034766 1.990871c9.21699 0 18.80266-.294944 28.75702-.884832 9.95435-.589887 15.63202-.921699 17.033-.995435v-56.076194c0-10.4705053-1.27194-19.171348-3.81583-26.1025278s-6.80214-12.9037921-12.77476-17.9178371c-6.41502-5.4564607-14.24947-9.3644663-23.50333-11.7240168-9.25386-2.3595506-21.365-3.5393259-36.33339-3.5393259-6.04635 0-10.65485.036868-13.8255.1106039-3.17064.073736-5.67766.110604-7.52106.110604l-3.64993 31.3009129c3.46559-.073736 7.07865-.1843399 10.83918-.3318118 3.76054-.1474719 8.22156-.2212079 13.38308-.2212079 4.7191 0 8.75614.129038 12.11113.3871138 3.35498.2580758 6.39659.7557935 9.12482 1.4931531 4.35042 1.0323034 7.26299 2.4701545 8.73771 4.3135534 1.47472 1.8433988 2.28582 4.1660814 2.43329 6.9680477-4.7191.2949438-11.55811.9770014-20.51703 2.0461728-8.95892 1.0691713-16.68276 2.7466643-23.17152 5.0324789-9.29073 3.2443818-15.92697 7.3551618-19.90871 12.3323388s-5.97261 11.005091-5.97261 18.083743c0 6.415028 1.97243 12.092696 5.91731 17.033005 3.94487 4.940309 9.60411 8.922051 16.9777 11.945225 5.82514 2.359551 13.32777 4.055478 22.5079 5.087781s16.90397 1.548455 23.17153 1.548455zm-.33182-24.996489c-2.8757 0-5.51176-.18434-7.90818-.553019-2.39642-.36868-4.51633-.9217-6.35972-1.659059-2.6545-1.032304-4.88501-2.562325-6.69154-4.590064-1.80653-2.027738-2.7098-4.811271-2.7098-8.350597 0-3.09691.99544-5.73297 2.98631-7.908181 1.99087-2.17521 4.05548-3.742099 6.19382-4.700667 3.46559-1.548455 7.06022-2.580758 10.78388-3.09691 3.72367-.516152 6.32286-.811096 7.79758-.884831.07373 2.433286.1106 4.99561.1106 7.686973l-.00113 8.97359c-.00451 3.187199-.02257 6.076445-.05417 8.667737-.03016 2.473506-.04799 4.330007-.05347 5.569502l-.00183.734922c-.8111 0-1.56689.018434-2.26738.055302s-1.30882.055302-1.82497.055302zm115.47051 23.005618c0-13.714887-.03687-27.171699-.11061-40.370435-.06506-11.645944-.10141-24.8418731-.10907-39.5877884l-.00153-5.981032c0-12.8300562.03687-25.5126405.1106-38.0477529.07374-12.5351123.11061-25.2545646.11061-38.1583567h-44.79459c.07373 14.1573034.14747 27.872191.2212 41.1446629.07374 13.2724719.11061 25.4389045.11061 36.4992978l-.00188 7.8537155c-.00837 17.0805368-.04461 31.6799768-.10873 43.7983208-.07373 13.936096-.14747 24.885885-.2212 32.849368zm115.2493 12.055829 38.93258-13.49368c-9.06952-16.295646-16.8118-29.955232-23.22682-40.978757-6.41503-11.023525-9.62255-16.535288-9.62255-16.535288v-.110604c1.32725-2.212078 4.73754-7.7607091 10.23087-16.6458917s11.3369-18.5261587 17.53072-28.9229284l-42.91433-11.8346207c-7.37359 13.3462078-14.80249 25.6969803-22.28669 37.0523174-5.34586 8.110955-9.34678 14.3220806-12.00278 18.6333764l-.08362.133506-.00064-1.211089c-.01147-5.4736656-.01885-10.7568468-.02212-15.8495434l-.00197-6.0198034c0-12.3876404.01844-24.8121489.0553-37.2735253.03687-12.4613764.09217-26.176264.16591-41.1446629h-44.79459c.07373 14.0835674.14747 27.6694171.2212 40.7575492.07374 13.088132.11061 25.0886587.11061 36.00158l-.00184 9.4044418c-.00829 20.548853-.04454 36.972501-.10877 49.270944-.07373 14.120436-.14747 23.024052-.2212 26.71085h44.79459c0-4.497893-.03687-15.871664-.1106-34.121313-.02458-6.083216-.04507-11.975948-.06145-17.678195l-.00241-.494424.38019.590462c2.93049 4.525073 6.89578 10.227692 11.89589 17.107856l.94964 1.30383c7.3736 10.101826 17.43856 25.217697 30.19488 45.347613z" fill="#eb4199"/></g></g></svg>